<svg id="Layer_1" data-name="Layer 1" xmlns="http://www.w3.org/2000/svg" xmlns:xlink="http://www.w3.org/1999/xlink" viewBox="0 0 613.27 191.11"><defs><style>.cls-1{fill:url(#linear-gradient);}.cls-2{fill:url(#linear-gradient-2);}.cls-11,.cls-3{fill:#fff;}.cls-4{fill:#ea4244;}.cls-5{fill:#89c540;}.cls-6{fill:#fdc41e;}.cls-7{fill:#465eab;}.cls-8{fill:#f6881f;}.cls-9{fill:#44c0be;}.cls-10{fill:#e12a6b;}.cls-11{font-size:36.12px;font-family:NexaLight, Nexa Light;letter-spacing:0.8em;}</style><linearGradient id="linear-gradient" x1="131.42" y1="193.73" x2="76.21" y2="63.03" gradientUnits="userSpaceOnUse"><stop offset="0.06" stop-color="#931a1d"/><stop offset="0.63" stop-color="#d42d27"/></linearGradient><linearGradient id="linear-gradient-2" x1="128.34" y1="194.39" x2="73.12" y2="63.69" gradientUnits="userSpaceOnUse"><stop offset="0" stop-color="#931a1d"/><stop offset="0.14" stop-color="#b12323"/><stop offset="1" stop-color="#d42d27"/></linearGradient></defs><path class="cls-1" d="M45.85,99.55,52,98.23,52,96.77l-.3-8.17,2.53,1.22,3.67,1.76,16.64,8L65.85,85.29h0l-3.6-5.94,1.23,3.2c.4,1.07.81,2.13,1.21,3.18h0c-.4-1-.81-2.11-1.21-3.18l-1.23-3.2L55.1,67.55l12.29-.27L69.28,43.8,86.36,60l9.33-8,6.94,36.82,9.66-23.43,6.16,7.41,16.35-9.38.9,21.3,8.92,0L160.68,50a8.84,8.84,0,0,0-10-12.33l-43.38,9.75a8.84,8.84,0,0,1-7.94-2.13L66.76,15A8.84,8.84,0,0,0,52,20.71L47.82,65a8.83,8.83,0,0,1-4.48,6.89L4.53,93.57a8.84,8.84,0,0,0,.81,15.83l35.15,15.16,6.67-5.93L33.6,102.16Z"/><path class="cls-2" d="M165.13,136.78,142.45,98.54a8.82,8.82,0,0,1-1-6.34L125.2,118.37l9.89,9-24,3-1.59-4.15,6.11-2.34-2.36-6.16-9.36,3.59-18.08,6.91c.79,2.08,1.57,4.11,2.37,6.2l6.11-2.34,1.57,4.12-1.1.76-13,9-3.74,2.6-2,1.41.54-5.31.82-8-11.36-3.33L47.87,128a8.86,8.86,0,0,1,3.47,5.42L60,177a8.84,8.84,0,0,0,15.31,4.12l29.36-33.39a9.36,9.36,0,0,1,1.23-1.13l.34-2.53a1.47,1.47,0,0,0-.08-.75l-4.32-11.29-3.28,2.28-.12.08L97.12,131l9.19-3.51.47-.18c.43,1.14.87,2.27,1.3,3.41l-4.47.55c2.19,5.69,4.33,11.31,4.37,11.45a19,19,0,0,0,2.76,2s0,0,0,.05a8.92,8.92,0,0,1,1.55,0l44.16,5.26A8.84,8.84,0,0,0,165.13,136.78Z"/><path class="cls-3" d="M102.81,118.43l7-2.7c0-.14-.07-.25-.11-.35-1.34-3.5-2.66-7-4-10.49a14.11,14.11,0,0,0-1.17-2.29,12.19,12.19,0,0,0-21.6,11c1.3,3.49,2.66,7,4,10.45l.18.37,7-2.69c-.9-2.35-1.78-4.66-2.69-7l-2.71,1L87.68,113l5.52-2.11,3.74,9.79,3.11-1.19c-1.25-3.29-2.5-6.54-3.74-9.79l5.46-2.08c.35.93.7,1.83,1.06,2.76l-2.7,1Z"/><path class="cls-4" d="M84.27,97.51,80,93.57l-2,2.19,4.23,3.94Z"/><path class="cls-5" d="M110.6,96.62l-4.85,3.13,1.62,2.52,4.86-3.14C111.67,98.28,111.15,97.47,110.6,96.62Z"/><path class="cls-6" d="M73.78,110.74l.47,3,5.71-.91c-.17-1-.32-2-.48-3Z"/><path class="cls-7" d="M97.44,89l.06-.7-3-.26q-.14,1.53-.27,3c-.08.91-.16,1.81-.24,2.73L97,94C97.14,92.33,97.29,90.67,97.44,89Z"/><path class="cls-8" d="M74.92,101.42c-.3,1-.58,1.92-.86,2.87L79.58,106l.88-2.87Z"/><path class="cls-9" d="M106.14,92l-2.56-1.55c-1,1.66-2,3.3-3,5L103.16,97Z"/><path class="cls-10" d="M90.11,94.12l-2-5.33-2.73,1c.69,1.8,1.37,3.56,2,5.32Z"/><path class="cls-6" d="M106,17.59V37.85c1.71-10.3,10-10,10-10C106.34,26.45,106,18.44,106,17.59Z"/><path class="cls-6" d="M106,17.59v0Z"/><path class="cls-6" d="M106,37.85v0Z"/><path class="cls-6" d="M96,27.48c9.62,1.43,10,9.44,10,10.29V17.51C104.29,27.81,96,27.48,96,27.48Z"/><path class="cls-6" d="M131.29,8.43l.13,9.08c.69-4.63,4.4-4.53,4.4-4.53C131.5,12.4,131.29,8.81,131.29,8.43Z"/><path class="cls-6" d="M131.29,8.43v0A.1.1,0,0,0,131.29,8.43Z"/><path class="cls-6" d="M131.42,17.51v0Z"/><path class="cls-6" d="M126.88,12.93c4.32.58,4.53,4.16,4.54,4.55l-.14-9.09C130.59,13,126.88,12.93,126.88,12.93Z"/><path class="cls-6" d="M110.32.46V6.07c.48-2.85,2.77-2.76,2.77-2.76A2.93,2.93,0,0,1,110.32.46Z"/><path class="cls-6" d="M110.32.46v0A0,0,0,0,0,110.32.46Z"/><path class="cls-6" d="M110.31,6.07s0,0,0,0Z"/><path class="cls-6" d="M107.55,3.2a2.93,2.93,0,0,1,2.76,2.85V.44C109.84,3.29,107.55,3.2,107.55,3.2Z"/><path class="cls-6" d="M29.46,24.9v13c1.09-6.59,6.38-6.38,6.38-6.38C29.69,30.57,29.47,25.44,29.46,24.9Z"/><path class="cls-6" d="M29.46,24.9v0Z"/><path class="cls-6" d="M29.46,37.86v0Z"/><path class="cls-6" d="M23.08,31.23c6.16.91,6.38,6,6.38,6.58v-13C28.37,31.44,23.08,31.23,23.08,31.23Z"/><path class="cls-6" d="M32.59,57l.13,9.08c.7-4.62,4.4-4.53,4.4-4.53A4.76,4.76,0,0,1,32.59,57Z"/><path class="cls-6" d="M32.59,57v0Z"/><path class="cls-6" d="M32.72,66.09v0Z"/><path class="cls-6" d="M28.18,61.51a4.78,4.78,0,0,1,4.54,4.55L32.59,57C31.89,61.61,28.18,61.51,28.18,61.51Z"/><path class="cls-6" d="M11.71,44.8v8.29c.7-4.21,4.08-4.08,4.08-4.08A4.36,4.36,0,0,1,11.71,44.8Z"/><path class="cls-6" d="M11.71,44.8v0Z"/><path class="cls-6" d="M11.71,53.09v0Z"/><path class="cls-6" d="M7.63,48.85a4.34,4.34,0,0,1,4.08,4.21V44.77C11,49,7.63,48.85,7.63,48.85Z"/><path class="cls-6" d="M116.94,156.12v13c1.09-6.59,6.38-6.38,6.38-6.38C117.16,161.79,116.94,156.67,116.94,156.12Z"/><path class="cls-6" d="M116.94,156.12v0Z"/><path class="cls-6" d="M116.94,169.08v0Z"/><path class="cls-6" d="M110.56,162.45c6.15.91,6.37,6,6.38,6.58v-13C115.85,162.66,110.56,162.45,110.56,162.45Z"/><path class="cls-6" d="M118.94,179.89l.09,5.89c.45-3,2.86-2.94,2.86-2.94A3.1,3.1,0,0,1,118.94,179.89Z"/><path class="cls-6" d="M118.94,179.89v0Z"/><path class="cls-6" d="M119,185.78v0Z"/><path class="cls-6" d="M116.09,182.81a3.09,3.09,0,0,1,2.94,2.95l-.09-5.89C118.49,182.87,116.09,182.81,116.09,182.81Z"/><path class="cls-6" d="M94.8,182.82v8.29c.7-4.21,4.08-4.08,4.08-4.08A4.35,4.35,0,0,1,94.8,182.82Z"/><path class="cls-6" d="M94.8,182.82v0Z"/><path class="cls-6" d="M94.8,191.11v0Z"/><path class="cls-6" d="M90.72,186.87a4.34,4.34,0,0,1,4.08,4.21v-8.29C94.1,187,90.72,186.87,90.72,186.87Z"/><path class="cls-6" d="M9,70.4v4a2.07,2.07,0,0,1,2-2A2.11,2.11,0,0,1,9,70.4Z"/><path class="cls-6" d="M9,70.4H9Z"/><path class="cls-6" d="M9,74.44H9Z"/><path class="cls-6" d="M7,72.38a2.11,2.11,0,0,1,2,2.05v-4A2.07,2.07,0,0,1,7,72.38Z"/><path class="cls-6" d="M144.79,164.49v4c.34-2.06,2-2,2-2A2.12,2.12,0,0,1,144.79,164.49Z"/><path class="cls-6" d="M144.79,164.49v0Z"/><path class="cls-6" d="M144.79,168.53v0Z"/><path class="cls-6" d="M142.8,166.46a2.12,2.12,0,0,1,2,2v-4C144.45,166.53,142.8,166.46,142.8,166.46Z"/><path class="cls-6" d="M161.51,111.69v4c.34-2.06,2-2,2-2A2.12,2.12,0,0,1,161.51,111.69Z"/><path class="cls-6" d="M161.51,111.69v0Z"/><path class="cls-6" d="M161.51,115.73v0Z"/><path class="cls-6" d="M159.52,113.66a2.11,2.11,0,0,1,2,2v-4C161.17,113.73,159.52,113.66,159.52,113.66Z"/><path class="cls-6" d="M32.68,155.43l.08,5.89c.45-3,2.86-2.94,2.86-2.94A3.08,3.08,0,0,1,32.68,155.43Z"/><path class="cls-6" d="M32.68,155.43v0Z"/><path class="cls-6" d="M32.76,161.32v0Z"/><path class="cls-6" d="M29.82,158.35a3.08,3.08,0,0,1,2.94,3l-.08-5.89C32.22,158.41,29.82,158.35,29.82,158.35Z"/><path class="cls-6" d="M156.33,92.23l.09,5.89c.45-3,2.85-3,2.85-3A3.09,3.09,0,0,1,156.33,92.23Z"/><path class="cls-6" d="M156.33,92.23v0Z"/><path class="cls-6" d="M156.42,98.12v0Z"/><path class="cls-6" d="M153.47,95.14a3.11,3.11,0,0,1,2.95,3l-.09-5.89C155.88,95.2,153.47,95.14,153.47,95.14Z"/><path class="cls-6" d="M15.21,130.86v8.29c.7-4.22,4.08-4.08,4.08-4.08A4.37,4.37,0,0,1,15.21,130.86Z"/><path class="cls-6" d="M15.21,130.86v0Z"/><path class="cls-6" d="M15.21,139.15v0Z"/><path class="cls-6" d="M11.13,134.9a4.34,4.34,0,0,1,4.08,4.21v-8.29C14.52,135,11.13,134.9,11.13,134.9Z"/><path class="cls-6" d="M41.06,137.09v4a2.07,2.07,0,0,1,2-2A2.11,2.11,0,0,1,41.06,137.09Z"/><path class="cls-6" d="M41.06,137.09h0Z"/><path class="cls-6" d="M41.06,141.13h0Z"/><path class="cls-6" d="M39.07,139.07a2.11,2.11,0,0,1,2,2.05v-4A2.07,2.07,0,0,1,39.07,139.07Z"/><text class="cls-11" transform="translate(261.8 186.35)">LIGHTS</text><path class="cls-3" d="M232.13,142.79h-1.48a49,49,0,0,1-25.88-7.28,53.41,53.41,0,0,1-18.93-19.34A50.63,50.63,0,0,1,178.9,90.5q0-21.43,15.49-36.87T231.46,38.2a53.51,53.51,0,0,1,27.36,7.55l-2.64,3.3c-8.44-5.75-14.93-6.94-24.72-6.94a46.23,46.23,0,0,0-34,14.22,46.65,46.65,0,0,0-14.15,34.1,46.84,46.84,0,0,0,14.15,34.16,46.1,46.1,0,0,0,34,14.29,47.76,47.76,0,0,0,27.36-8.62v5A50,50,0,0,1,232.13,142.79Z"/><path class="cls-3" d="M335.5,80.66v60.65h-4.31v-15.1a28.35,28.35,0,0,1-11.32,12.13,31.88,31.88,0,0,1-38.82-4.92,31.41,31.41,0,0,1,0-44.88,31,31,0,0,1,22.65-9.37,32.38,32.38,0,0,1,16.51,4.59,24.83,24.83,0,0,1,11,12.13V80.66Zm-59.57,30.46a28.29,28.29,0,0,0,28,27.89,26.23,26.23,0,0,0,19.47-8.28,28,28,0,0,0-.06-39.43A26.28,26.28,0,0,0,303.83,83a26.62,26.62,0,0,0-19.61,8.42A27.29,27.29,0,0,0,275.93,111.12Z"/><path class="cls-3" d="M356,141.31h-4.32V80.66H356V92.92q6.87-13.74,23.45-13.75a25.59,25.59,0,0,1,19,7.82,26.11,26.11,0,0,1,7.68,19v35.32h-4.31V106a22.7,22.7,0,0,0-6.54-16.17A21,21,0,0,0,379.44,83a22.82,22.82,0,0,0-16.38,6.87A21.85,21.85,0,0,0,356,106Z"/><path class="cls-3" d="M435.5,82.81a9.33,9.33,0,0,0-6.2,2.29,7.14,7.14,0,0,0-2.69,5.66,8.37,8.37,0,0,0,3,6.2,36.54,36.54,0,0,0,7.28,5.19q4.24,2.37,8.56,5.06a26.23,26.23,0,0,1,7.34,6.87,15.9,15.9,0,0,1,3,9.57,17.88,17.88,0,0,1-6,13.55,20.52,20.52,0,0,1-14.49,5.59,21.89,21.89,0,0,1-10-2.36,15.45,15.45,0,0,1-6.81-6.27v-6.47Q423.64,139,435,139a17,17,0,0,0,11.8-4.31q4.77-4.3,4.78-9.63a13.56,13.56,0,0,0-3-9,28.29,28.29,0,0,0-7.35-6.2l-8.55-5.05a28.14,28.14,0,0,1-7.28-6.06,12.53,12.53,0,0,1-3-8.36,10.29,10.29,0,0,1,3.84-8.09A14.7,14.7,0,0,1,436,79a13.57,13.57,0,0,1,10.38,4.72v5.52Q442.1,82.82,435.5,82.81Z"/><path class="cls-3" d="M490.35,138.34v3.78a22.79,22.79,0,0,1-16.3-6.41,21.54,21.54,0,0,1-6.74-16.37V56.26h4.31V80.79h18.6v3.78h-18.6v34.77a18.53,18.53,0,0,0,18.73,19Z"/><path class="cls-3" d="M561.65,80.66v60.65h-4.31v-15.1A28.35,28.35,0,0,1,546,138.34a31.33,31.33,0,0,1-16.18,4.45,31,31,0,0,1-22.64-9.37,31.41,31.41,0,0,1,0-44.88,31,31,0,0,1,22.64-9.37,32.33,32.33,0,0,1,16.51,4.59,24.81,24.81,0,0,1,11,12.13V80.66Zm-59.57,30.46A28.29,28.29,0,0,0,530,139a26.24,26.24,0,0,0,19.48-8.28,28,28,0,0,0-.07-39.43A26.25,26.25,0,0,0,530,83a26.6,26.6,0,0,0-19.61,8.42A27.25,27.25,0,0,0,502.08,111.12Z"/><path class="cls-3" d="M600.19,83a17.43,17.43,0,0,0-12.6,5.39,17.08,17.08,0,0,0-5.46,12.53v40.44h-4.31V80.66h4.31v9a19.08,19.08,0,0,1,7.55-7.55,22.5,22.5,0,0,1,11.46-3,20,20,0,0,1,12.13,4.32v5.39Q607.33,82.94,600.19,83Z"/></svg>